# xmcd
#
# Track frame offsets:
#	150
#	10215
#	18679
#	30256
#	43408
#	54388
#	66034
#	75155
#	87931
#	101000
#	109238
#	119916
#	132824
#	142228
#	153613
#	162573
#	173408
#	183791
#	195192
#	206240
#
# Disc length: 2887 seconds
#
# Revision: 1
# Processed by: cddbd v1.5.2PL0 Copyright (c) Steve Scherf et al.
# Submitted via: audiograbber 1.83.01
#
DISCID=100b4514
DTITLE=Various Artist - Country and Western - 200 No.1 - Hits (1944-1962) - CD3
DYEAR=2016
DGENRE=Country
TTITLE0=Johnny Cash - Ballad Of A Teenage Queen (1958)
TTITLE1=Jerry Lee Lewis - Great Balls Of Fire (1958)
TTITLE2=Marty Robbins - The Story Of My Life (1958)
TTITLE3=Bobby Helms - My Special Angel (1957)
TTITLE4=Elvis Presley - Jailhouse Rock (1957)
TTITLE5=Ray Price - My Shoes Keep Walking Back To You (1957)
TTITLE6=Everly Brothers - Wake Up Little Susie (1957)
TTITLE7=Bobby Helms - Fraulein (1957)
TTITLE8=Jerry Lee Lewis - Whole Lot Of Shakin' Going On (1957)
TTITLE9=Elvis Presley - (Let Me Be Your) Teddy Bear (1957)
TTITLE10=Everly Brothers - Bye Bye Love (1957)
TTITLE11=Jim Reeves - Four Walls (1957)
TTITLE12=Webb Pierce - Honky Tonk Song (1957)
TTITLE13=Marty Robbins - A White Sport Coat (And A Pink Carnation) (1957)
TTITLE14=Elvis Presley - All Shook Up (1957)
TTITLE15=Ferlin Husky - Gone (1957)
TTITLE16=Johnny Cash - There You Go (1957)
TTITLE17=Sonny James - Young Love (1957)
TTITLE18=Marty Robbins - Singing The Blues (1956)
TTITLE19=Elvis Presley - Hound Dog (1956)
EXTD=
EXTT0=
EXTT1=
EXTT2=
EXTT3=
EXTT4=
EXTT5=
EXTT6=
EXTT7=
EXTT8=
EXTT9=
EXTT10=
EXTT11=
EXTT12=
EXTT13=
EXTT14=
EXTT15=
EXTT16=
EXTT17=
EXTT18=
EXTT19=
PLAYORDER=
